<svg version="1.1" id="Layer_1" xmlns="http://www.w3.org/2000/svg" xmlns:xlink="http://www.w3.org/1999/xlink" x="0px" y="0px"
	 width="100%" viewBox="0 0 2000 1138" enable-background="new 0 0 2000 1138" xml:space="preserve">
<path fill="#FFFFFF" opacity="1.000000" stroke="none" 
	d="
M1313.000000,1139.000000 
	C876.833435,1139.000000 441.166931,1138.994385 5.500411,1139.092896 
	C1.752261,1139.093750 0.905924,1138.250366 0.906917,1134.500366 
	C1.006540,758.167175 1.006518,381.833954 0.907119,5.500753 
	C0.906129,1.753448 1.748461,0.906600 5.499282,0.907146 
	C669.165710,1.003711 1332.832153,1.003691 1996.498657,0.907521 
	C2000.244385,0.906979 2001.094116,1.746282 2001.093140,5.498697 
	C2000.993286,381.831879 2000.993408,758.165100 2001.092651,1134.498291 
	C2001.093628,1138.243164 2000.255127,1139.095459 1996.501709,1139.093750 
	C1768.834473,1138.989136 1541.167236,1139.000000 1313.000000,1139.000000 
z"/>
<path fill="#F50230" opacity="1.000000" stroke="none" 
	d="
M1246.819214,141.536453 
	C1244.293335,142.343323 1242.087036,143.292831 1239.557617,144.409485 
	C1238.565796,144.758392 1237.952393,145.058624 1237.069946,145.594635 
	C1208.093140,158.685684 1179.996094,172.800079 1152.170410,187.435913 
	C1103.671753,212.945221 1056.337402,240.484711 1010.047363,269.818054 
	C934.975159,317.390320 863.080750,369.408081 793.445312,424.586761 
	C712.173767,488.985870 634.369263,557.425293 557.594177,627.062378 
	C555.844849,628.649048 554.551208,630.028503 551.598999,628.887573 
	C499.039124,608.574890 449.026855,583.518433 403.762146,549.640991 
	C375.180664,528.249756 349.425964,503.979431 329.257263,474.272552 
	C311.549194,448.189819 299.648132,419.939240 298.410645,387.964355 
	C297.200958,356.708740 306.991241,328.613892 323.641327,302.645233 
	C343.948700,270.972351 371.361786,246.339584 401.814240,224.872070 
	C444.544006,194.749649 491.364960,172.540192 540.062500,154.017944 
	C588.528931,135.583633 638.291199,121.537849 688.900452,110.489441 
	C723.064514,103.031158 757.521912,97.165253 792.182129,92.396225 
	C857.822327,83.364563 923.768921,78.919716 989.993103,78.889404 
	C1036.670410,78.868034 1083.256470,81.420677 1129.755981,85.570740 
	C1172.586792,89.393379 1215.146973,95.178001 1257.379883,103.219917 
	C1345.213013,119.944939 1430.504395,144.580002 1510.236328,186.014175 
	C1550.951904,207.172775 1588.898682,232.330276 1620.711670,265.826080 
	C1643.254395,289.561279 1661.012451,316.223755 1669.818970,348.221588 
	C1678.271973,378.934998 1675.480469,408.567719 1663.719360,438.135254 
	C1639.854980,498.130768 1602.484253,547.715454 1551.755371,587.408752 
	C1508.006470,621.640503 1458.893921,645.767334 1406.683350,663.926636 
	C1361.917603,679.496582 1315.917725,690.146667 1269.147705,697.576355 
	C1210.133545,706.951172 1150.708374,711.254578 1090.993408,712.237976 
	C1028.946045,713.259644 967.058105,710.453979 905.243164,705.342041 
	C901.060486,704.996155 900.626953,704.193970 902.610474,700.481201 
	C958.986755,594.954468 1023.069031,494.296997 1093.433716,397.579834 
	C1154.726685,313.332123 1219.498169,231.815308 1285.915771,151.581757 
	C1287.321777,149.883347 1289.001343,148.315674 1289.817627,145.886246 
	C1287.722534,145.456451 1286.970459,146.743408 1286.059082,147.524185 
	C1213.106567,210.020172 1143.169067,275.681061 1077.557251,345.898499 
	C1001.704285,427.075806 933.922607,514.543823 873.305664,607.602051 
	C855.486145,634.958130 837.800537,662.402161 820.213928,689.908386 
	C818.235535,693.002747 816.355835,694.052917 812.621094,693.584778 
	C772.938477,688.610840 733.606140,681.715576 694.678162,672.544861 
	C679.618713,668.997131 664.616150,665.204407 649.533203,661.762085 
	C645.289612,660.793640 645.031555,659.867920 648.016113,656.670166 
	C718.312683,581.353027 790.831787,508.280914 866.861267,438.713257 
	C973.978333,340.700134 1087.306641,250.573486 1207.745972,169.439957 
	C1220.865845,160.601852 1234.100586,151.934174 1247.505981,142.933167 
	C1247.471558,142.390778 1247.409668,142.134705 1247.546021,141.911575 
	C1247.672363,141.704422 1247.791992,141.601364 1248.247559,141.556015 
	C1250.320801,140.798370 1251.784790,139.660690 1253.306763,138.616104 
	C1252.069946,139.286057 1250.819214,139.935196 1249.455688,141.047012 
	C1248.518799,141.511093 1247.800293,141.464676 1246.819214,141.536453 
z"/>
<path fill="#F50331" opacity="1.000000" stroke="none" 
	d="
M124.076530,1007.999817 
	C124.075943,1013.998474 123.885231,1019.506348 124.147079,1024.992554 
	C124.300575,1028.208740 123.103355,1028.864136 120.138992,1028.843384 
	C102.643829,1028.721191 85.146011,1028.671143 67.652397,1028.877686 
	C63.868256,1028.922241 63.358707,1027.457031 63.381866,1024.218140 
	C63.510525,1006.223206 63.443302,988.226746 63.443283,970.230835 
	C63.443237,916.409729 63.443386,862.588562 63.443108,808.767456 
	C63.443073,802.030579 63.442074,802.030518 69.937668,802.030579 
	C163.916336,802.030701 257.895020,802.031006 351.873688,802.030945 
	C378.381104,802.030945 395.946564,819.602966 395.959991,846.249817 
	C395.988403,902.737000 395.974457,959.224182 395.955322,1015.711365 
	C395.953918,1019.854675 397.349976,1025.347168 395.262085,1027.790283 
	C392.803619,1030.666992 387.131287,1028.703003 382.866241,1028.740234 
	C368.703857,1028.864014 354.536652,1028.623169 340.378174,1028.888306 
	C336.210785,1028.966431 335.139282,1027.819580 335.151733,1023.658203 
	C335.300873,973.836670 335.250519,924.014404 335.246918,874.192383 
	C335.245972,861.144409 329.074249,855.024292 315.909515,855.015137 
	C301.746063,855.005310 287.582581,854.998169 273.419159,855.016541 
	C264.225311,855.028442 259.968811,859.229492 259.964417,868.457947 
	C259.940002,919.946289 259.879639,971.434814 260.072235,1022.922485 
	C260.090332,1027.750000 258.931244,1029.006714 254.088150,1028.909790 
	C237.598511,1028.579712 221.096207,1028.647705 204.603302,1028.883789 
	C200.474350,1028.942871 199.340622,1027.818848 199.352310,1023.661438 
	C199.494736,973.006653 199.447311,922.351318 199.435242,871.696167 
	C199.434723,869.533203 199.439896,867.354370 199.199524,865.210205 
	C198.520615,859.154114 194.369843,855.109436 188.224319,855.071228 
	C167.896378,854.944885 147.566589,855.101868 127.239006,854.949219 
	C122.763725,854.915588 124.118965,857.896240 124.116699,860.034119 
	C124.064522,909.189331 124.076492,958.344604 124.076530,1007.999817 
z"/>
<path fill="#F50330" opacity="1.000000" stroke="none" 
	d="
M1298.519287,875.550415 
	C1306.298706,866.551270 1315.848999,862.417175 1327.377319,862.433777 
	C1366.205322,862.489685 1405.033447,862.391052 1443.860840,862.540649 
	C1447.882690,862.556152 1449.230591,861.747314 1449.160400,857.427124 
	C1448.884399,840.433899 1449.138184,823.432739 1448.967529,806.436768 
	C1448.932983,803.005676 1449.755615,801.902222 1453.349731,801.941406 
	C1470.845215,802.132385 1488.344482,802.097656 1505.841064,801.965637 
	C1508.951538,801.942139 1510.106812,802.567627 1510.101807,806.009033 
	C1509.997559,878.998718 1510.002441,951.988647 1510.090576,1024.978394 
	C1510.094360,1028.112915 1509.175659,1028.851807 1506.144775,1028.847656 
	C1444.153564,1028.763550 1382.161987,1028.848267 1320.170898,1028.745972 
	C1303.329590,1028.718262 1290.529663,1016.248230 1290.409424,999.468140 
	C1290.166870,965.641174 1290.285645,931.811218 1290.371216,897.982727 
	C1290.392090,889.738525 1293.088379,882.294128 1298.519287,875.550415 
z"/>
<path fill="#F50431" opacity="1.000000" stroke="none" 
	d="
M652.600952,927.000122 
	C652.601440,959.490295 652.539368,991.480713 652.683655,1023.470215 
	C652.701233,1027.364258 652.067505,1028.904785 647.635925,1028.894043 
	C583.322754,1028.738770 519.009094,1028.799194 454.695526,1028.772461 
	C441.564056,1028.767090 434.056702,1021.086182 434.055756,1007.848267 
	C434.054474,989.520569 434.029724,971.192871 434.063446,952.865234 
	C434.089813,938.544250 443.573914,929.064514 457.859955,929.057861 
	C491.016418,929.042358 524.172913,929.048462 557.329346,929.058594 
	C564.978027,929.060974 567.865051,931.913452 567.930908,939.581604 
	C567.985291,945.912476 567.750061,952.252625 568.022583,958.572327 
	C568.172546,962.049316 567.170349,963.083557 563.614258,963.057434 
	C541.455627,962.894592 519.295166,962.969849 497.135315,962.975525 
	C489.271027,962.977539 487.383667,964.851624 487.355988,972.652588 
	C487.342987,976.318054 487.579895,980.001282 487.293152,983.644165 
	C487.011841,987.218323 487.934967,988.543335 491.865387,988.523865 
	C524.021301,988.364258 556.178894,988.363281 588.334717,988.536621 
	C592.272949,988.557800 592.939270,987.268372 592.908997,983.695496 
	C592.740723,963.869690 592.854248,944.041626 592.821289,924.214478 
	C592.802124,912.711853 585.950378,905.824219 574.532166,905.819885 
	C530.212463,905.802856 485.892761,905.824829 441.573120,905.765808 
	C440.056915,905.763794 437.850952,906.807007 437.146942,904.945312 
	C436.812225,904.060242 438.301910,902.386475 439.124146,901.178162 
	C445.681519,891.542603 452.340820,881.975891 458.838837,872.300720 
	C463.296051,865.664185 469.541351,862.322876 477.367737,862.309570 
	C523.853271,862.230469 570.340759,862.042175 616.823914,862.380615 
	C637.436279,862.530640 652.323669,878.301819 652.576904,899.009949 
	C652.688965,908.172058 652.599182,917.336670 652.600952,927.000122 
z"/>
<path fill="#F50431" opacity="1.000000" stroke="none" 
	d="
M1734.000000,905.813782 
	C1725.504028,905.813782 1717.508057,905.813782 1709.558838,905.813782 
	C1708.469482,904.129578 1709.932495,903.258728 1710.593750,902.282166 
	C1717.409668,892.216736 1724.324951,882.218628 1731.132812,872.147827 
	C1735.609375,865.525757 1741.913208,862.308533 1749.743164,862.298096 
	C1796.064941,862.236145 1842.387695,862.087891 1888.708008,862.352966 
	C1909.277466,862.470703 1924.689331,878.145386 1924.782593,898.707275 
	C1924.973022,940.695984 1924.797119,982.686218 1924.912109,1024.675415 
	C1924.921265,1028.022705 1923.942749,1028.856934 1920.703247,1028.852661 
	C1855.719604,1028.766479 1790.735718,1028.830444 1725.751953,1028.746582 
	C1713.929199,1028.731323 1706.239746,1020.629639 1706.221802,1008.723877 
	C1706.193604,990.061890 1706.187500,971.399780 1706.223145,952.737793 
	C1706.250000,938.717224 1715.777710,929.080444 1729.671997,929.066223 
	C1762.997070,929.032166 1796.322021,929.046936 1829.647095,929.058228 
	C1837.060059,929.060730 1839.997803,931.890381 1840.087646,939.210144 
	C1840.167603,945.707520 1839.888672,952.216919 1840.192505,958.701111 
	C1840.363281,962.345398 1839.073364,963.074097 1835.677002,963.051636 
	C1813.516846,962.904541 1791.355225,962.969055 1769.194092,962.979309 
	C1761.499756,962.982910 1759.550781,964.760010 1759.725220,972.291504 
	C1759.847046,977.551758 1757.364990,984.574097 1760.802490,987.561157 
	C1763.788818,990.156067 1770.630615,988.410583 1775.768677,988.416931 
	C1803.761719,988.451721 1831.755127,988.355957 1859.747192,988.525696 
	C1863.710083,988.549744 1865.142700,987.833801 1865.084473,983.461975 
	C1864.822998,963.803711 1864.984497,944.139954 1864.963013,924.478210 
	C1864.949951,912.562561 1858.274536,905.823853 1846.471436,905.819336 
	C1809.147583,905.804993 1771.823853,905.813843 1734.000000,905.813782 
z"/>
<path fill="#F50431" opacity="1.000000" stroke="none" 
	d="
M1251.185181,978.000000 
	C1251.185303,993.666199 1251.023682,1008.835205 1251.291870,1023.996643 
	C1251.364380,1028.102295 1250.045288,1028.915649 1246.246094,1028.872437 
	C1229.248901,1028.678955 1212.245972,1028.642334 1195.250366,1028.893433 
	C1191.123413,1028.954468 1190.344849,1027.596924 1190.360962,1023.807800 
	C1190.499023,991.309448 1190.129883,958.805847 1190.597656,926.313599 
	C1190.777222,913.843323 1183.553345,905.153870 1169.738525,905.636597 
	C1149.930176,906.328735 1130.077759,905.943726 1110.247925,905.705872 
	C1105.818359,905.652771 1104.418213,906.632996 1104.444946,911.339722 
	C1104.655884,948.670593 1104.487183,986.003662 1104.663574,1023.334900 
	C1104.683960,1027.648804 1103.761841,1028.983643 1099.224854,1028.905273 
	C1082.063843,1028.609009 1064.894043,1028.705078 1047.729248,1028.861694 
	C1044.490112,1028.891113 1043.480835,1028.059326 1043.487061,1024.726929 
	C1043.585449,972.062134 1043.578857,919.397095 1043.502197,866.732239 
	C1043.497681,863.684509 1043.972290,862.366211 1047.514404,862.373413 
	C1103.678955,862.486816 1159.844238,862.347900 1216.008667,862.505493 
	C1235.622925,862.560486 1251.088501,878.389465 1251.159912,898.002380 
	C1251.256348,924.501282 1251.184692,951.000793 1251.185181,978.000000 
z"/>
<path fill="#F50331" opacity="1.000000" stroke="none" 
	d="
M1610.889282,948.000000 
	C1610.889526,973.659180 1610.783936,998.819214 1610.996338,1023.976562 
	C1611.031006,1028.074341 1609.786621,1028.915161 1605.967407,1028.872070 
	C1588.808105,1028.678345 1571.643066,1028.640991 1554.485352,1028.894043 
	C1550.324463,1028.955444 1549.643066,1027.519897 1549.652832,1023.788696 
	C1549.770508,978.969055 1549.715698,934.148987 1549.736206,889.329041 
	C1549.744141,872.180115 1559.453003,862.337402 1576.702148,862.296326 
	C1614.690552,862.205933 1652.679321,862.267822 1690.667969,862.267639 
	C1697.281738,862.267578 1703.895508,862.267639 1710.529541,862.267639 
	C1710.892090,864.372620 1709.438721,865.288208 1708.655884,866.418457 
	C1702.018066,876.000732 1695.198730,885.458130 1688.625732,895.083984 
	C1683.716797,902.272705 1677.213257,905.825928 1668.411987,905.687744 
	C1655.085938,905.478577 1641.754028,905.599487 1628.424805,905.646729 
	C1617.530151,905.685303 1610.976929,912.187195 1610.901733,923.007507 
	C1610.844971,931.171326 1610.889648,939.335815 1610.889282,948.000000 
z"/>
<path fill="#F5012F" opacity="1.000000" stroke="none" 
	d="
M749.785706,802.785400 
	C750.130737,805.651489 750.345947,808.302002 750.346497,810.952454 
	C750.352905,841.279175 750.326660,871.605957 750.187134,902.376343 
	C750.607239,903.665466 750.840576,904.562988 750.337036,905.993164 
	C750.219116,924.543762 750.329407,942.654114 750.352722,960.764587 
	C750.380676,982.537964 750.334717,1004.311523 750.216858,1026.544189 
	C748.852539,1028.012085 747.351013,1027.986084 745.859131,1027.987183 
	C728.502014,1028.000244 711.144958,1028.008667 693.787842,1027.981323 
	C692.796143,1027.979736 691.800842,1027.957886 690.453613,1027.276367 
	C689.973450,1026.173096 689.844421,1025.347168 689.844482,1024.521240 
	C689.849060,950.980225 689.863525,877.439209 690.002625,803.443481 
	C690.244507,802.837158 690.361145,802.685669 690.727539,802.392944 
	C710.017944,802.187378 729.058716,802.123047 748.562683,802.144592 
	C749.202698,802.343506 749.379456,802.456665 749.785706,802.785400 
z"/>
<path fill="#F50431" opacity="1.000000" stroke="none" 
	d="
M751.834473,903.556519 
	C760.007202,891.830688 767.896667,880.302979 775.864258,868.829407 
	C779.054199,864.235718 783.601990,862.246216 789.161682,862.252502 
	C815.311035,862.282043 841.463196,862.030457 867.608826,862.341492 
	C888.692444,862.592285 903.687439,878.379517 903.694275,899.595215 
	C903.707642,940.901245 903.645874,982.207397 903.782227,1023.512939 
	C903.795227,1027.450562 903.111267,1028.969849 898.714661,1028.898315 
	C881.730408,1028.622070 864.737549,1028.669556 847.751282,1028.875000 
	C843.998840,1028.920410 843.036804,1027.916382 843.054626,1024.161133 
	C843.210815,991.350342 843.151978,958.538391 843.141174,925.726807 
	C843.136719,912.129333 836.849243,905.816467 823.378479,905.811584 
	C799.894226,905.803040 776.409912,905.788757 752.467285,905.679321 
	C751.424377,905.084412 751.364319,904.463196 751.834473,903.556519 
z"/>
<path fill="#F50431" opacity="1.000000" stroke="none" 
	d="
M943.386841,952.999878 
	C943.384766,940.671997 943.390808,928.844177 943.377625,917.016296 
	C943.368286,908.678650 946.120728,901.133667 952.958496,896.539124 
	C969.353638,885.522766 986.240845,875.238647 1002.904724,864.674683 
	C1004.547119,866.328186 1003.899658,867.892273 1003.900757,869.257935 
	C1003.941223,920.734131 1003.884888,972.210388 1004.027527,1023.686218 
	C1004.039001,1027.825317 1002.960083,1028.950684 998.811584,1028.890747 
	C981.989563,1028.646606 965.160706,1028.678345 948.337402,1028.872314 
	C944.517029,1028.916382 943.245667,1028.063477 943.282898,1023.966370 
	C943.496155,1000.479126 943.386658,976.989014 943.386841,952.999878 
z"/>
<path fill="#F50531" opacity="1.000000" stroke="none" 
	d="
M943.389771,804.381531 
	C943.403137,801.558411 945.145874,801.930359 946.589783,801.929565 
	C964.582153,801.919312 982.574829,801.967224 1000.566711,801.877197 
	C1003.114197,801.864502 1004.026245,802.519897 1003.995911,805.212891 
	C1003.860901,817.206299 1003.904907,829.202271 1003.972778,841.196838 
	C1003.983215,843.048523 1003.454102,844.250671 1001.862427,845.301208 
	C982.826721,857.863770 963.834167,870.491638 944.816833,883.081970 
	C944.598694,883.226379 944.201355,883.099976 943.383484,883.099976 
	C943.383484,857.010437 943.383484,830.928467 943.389771,804.381531 
z"/>
<path fill="#F50632" opacity="1.000000" stroke="none" 
	d="
M690.018799,1027.421021 
	C709.748169,1027.000122 729.454041,1027.001221 749.636475,1027.002930 
	C750.351990,1028.800171 749.103394,1028.782593 747.910522,1028.782471 
	C729.127563,1028.781372 710.344543,1028.773682 691.561584,1028.767456 
	C690.857849,1028.767212 690.278870,1028.555298 690.018799,1027.421021 
z"/>
<path fill="#F50632" opacity="1.000000" stroke="none" 
	d="
M751.715454,903.497437 
	C752.060974,903.897705 752.035461,904.458740 752.009460,905.300781 
	C751.593140,905.766174 751.177307,905.950623 750.454468,906.284180 
	C750.101135,905.530457 750.054810,904.627625 750.036804,903.272400 
	C750.491577,903.099426 750.918030,903.378845 751.715454,903.497437 
z"/>
<path fill="#FB9AAC" opacity="1.000000" stroke="none" 
	d="
M1237.056396,145.810883 
	C1237.079102,144.863846 1237.790649,144.525284 1238.940430,144.481445 
	C1238.606079,145.008621 1237.977783,145.440567 1237.056396,145.810883 
z"/>
<path fill="#F50632" opacity="1.000000" stroke="none" 
	d="
M750.023560,802.722900 
	C749.722290,802.942566 749.472229,802.805908 749.145386,802.410706 
	C749.361206,802.301819 749.696594,802.373230 750.023560,802.722900 
z"/>
<path fill="#F50632" opacity="1.000000" stroke="none" 
	d="
M690.724243,802.201538 
	C690.874512,802.498596 690.709900,802.693115 690.305664,802.911987 
	C690.242371,802.709595 690.356812,802.430542 690.724243,802.201538 
z"/>
<path fill="#FFFEFE" opacity="1.000000" stroke="none" 
	d="
M682.117310,140.120895 
	C726.183289,128.403046 770.556519,120.546783 815.377808,115.009247 
	C894.608215,105.220573 974.163818,103.134430 1053.862061,105.174393 
	C1108.843384,106.581711 1163.674683,110.517021 1218.313965,116.921059 
	C1221.404297,117.283249 1224.479248,117.777748 1227.661255,118.224701 
	C1227.020020,120.150337 1225.300781,120.097481 1224.003906,120.565529 
	C1156.570312,144.902237 1089.781616,170.869537 1023.803345,198.937851 
	C946.929199,231.641434 871.385437,267.166595 796.898926,304.965546 
	C703.227905,352.499908 611.350891,403.345398 520.003357,455.162292 
	C516.290833,457.268219 512.874146,457.948395 508.675354,457.058411 
	C485.992645,452.250732 464.488129,444.590759 445.302795,431.284637 
	C410.936890,407.450012 400.513214,373.924042 415.062897,334.565033 
	C424.624146,308.700470 440.374756,286.706787 457.918427,265.821808 
	C487.001892,231.199219 522.989990,205.477814 562.838928,184.858200 
	C600.678833,165.278076 640.607971,151.143845 682.117310,140.120895 
z"/>
<path fill="#FFFEFE" opacity="1.000000" stroke="none" 
	d="
M1412.283203,510.404907 
	C1377.246216,523.832275 1341.855591,534.819946 1305.731445,543.460510 
	C1269.270996,552.181519 1232.504028,559.126526 1195.209595,563.181702 
	C1173.824829,565.506958 1152.435669,567.398987 1130.891846,566.066406 
	C1125.227173,565.715881 1119.657104,565.015747 1114.187500,563.321533 
	C1110.616943,562.215576 1110.020264,560.714355 1111.443604,557.221436 
	C1147.779419,468.047211 1190.826538,382.401306 1243.714233,301.755127 
	C1274.950317,254.124420 1304.062134,205.151550 1332.051147,155.533905 
	C1334.169434,151.778732 1336.213257,151.058380 1340.312012,151.848297 
	C1387.180298,160.880920 1430.679199,178.048264 1469.776733,205.619263 
	C1515.568726,237.911285 1547.265869,280.510681 1563.024658,334.618378 
	C1573.108398,369.240936 1564.835938,399.722504 1542.511230,427.053711 
	C1522.991455,450.950897 1498.008057,467.990875 1471.387329,482.844482 
	C1452.477417,493.395630 1432.746460,502.242737 1412.283203,510.404907 
z"/>
<path fill="#FB9AAC" opacity="1.000000" stroke="none" 
	d="
M1248.732178,140.832245 
	C1250.735229,137.838165 1253.698853,137.682831 1256.339600,136.776978 
	C1254.600586,139.150787 1252.248169,140.672607 1249.373657,142.002960 
	C1248.848999,141.769043 1248.673584,141.506500 1248.732178,140.832245 
z"/>
<path fill="#FA869C" opacity="1.000000" stroke="none" 
	d="
M1290.719482,143.891205 
	C1291.631958,141.361526 1293.373901,140.485306 1295.717407,138.984283 
	C1295.075195,142.037704 1293.247803,143.383774 1291.521240,145.065460 
	C1290.953247,144.884689 1290.704834,144.623993 1290.719482,143.891205 
z"/>
<path fill="#FFFFFF" opacity="1.000000" stroke="none" 
	d="
M1290.571533,143.605072 
	C1291.010132,143.708099 1291.038086,143.996887 1291.133789,144.715622 
	C1290.633545,145.668381 1290.001099,146.376755 1289.308960,145.455856 
	C1288.596680,144.508118 1289.458496,144.138290 1290.571533,143.605072 
z"/>
<path fill="#FFFFFF" opacity="1.000000" stroke="none" 
	d="
M1248.620972,140.405777 
	C1248.983154,140.688751 1249.000244,140.957001 1249.020752,141.628418 
	C1248.757080,142.218658 1248.483887,142.396637 1247.967407,142.622192 
	C1247.518066,142.471558 1247.306152,142.264221 1246.796875,141.725342 
	C1247.091553,141.059540 1247.683716,140.725296 1248.620972,140.405777 
z"/>
<path fill="#FFFEFE" opacity="1.000000" stroke="none" 
	d="
M1439.014893,880.029358 
	C1442.140503,874.699280 1445.101318,869.694580 1448.072876,864.671753 
	C1449.802612,865.346375 1449.015625,866.712036 1449.016602,867.677002 
	C1449.059692,905.963562 1448.990845,944.250366 1449.144409,982.536377 
	C1449.159668,986.329956 1448.142212,987.188416 1444.458130,987.166016 
	C1417.492065,987.002136 1390.524414,987.089600 1363.557373,987.067078 
	C1355.351929,987.060242 1351.308105,983.039734 1351.289917,974.833923 
	C1351.252930,958.021179 1351.238281,941.208130 1351.297363,924.395508 
	C1351.338745,912.625549 1358.201782,905.831665 1369.947876,905.812134 
	C1383.431396,905.789795 1396.915161,905.754028 1410.398315,905.827881 
	C1419.509155,905.877747 1426.444336,902.441040 1430.807739,894.143494 
	C1433.281860,889.438538 1436.156250,884.944031 1439.014893,880.029358 
z"/>
</svg>